<svg version="1.2" baseProfile="tiny" id="EdgeSVG_PSUXR" x="0px" y="0px" width="101.44px" height="58.583px" viewBox="0 0 101.44 58.583" xmlns:xlink="http://www.w3.org/1999/xlink" xmlns="http://www.w3.org/2000/svg">
  <linearGradient id="SVGID_1_" gradientUnits="userSpaceOnUse" x1="0" y1="29.2915" x2="101.4399" y2="29.2915">
    <stop offset="0" style="stop-color:#000000;stop-opacity:0.5"/>
    <stop offset="1" style="stop-color:#000000;stop-opacity:0.5"/>
  </linearGradient>
  <path fill="url(#SVGID_1_)" d="M2.72,58.583c-1.5,0-2.72-1.22-2.72-2.72V2.72C0,1.22,1.22,0,2.72,0h96c1.5,0,2.72,1.22,2.72,2.72&#xD;&#xA;&#x9;v53.143c0,1.5-1.22,2.72-2.72,2.72H2.72z"/>
  <path fill="#003876" d="M100.72,55.863c0,1.1-0.9,2-2,2h-96c-1.1,0-2-0.9-2-2V2.72c0-1.1,0.9-2,2-2h96c1.1,0,2,0.9,2,2V55.863z"/>
  <path fill="#FFFFFF" d="M0.72,10.24h10.546L0.72,4.192c0,0,0-0.839,0-1.472c0-0.969,0.734-2,2-2c1.653,0,4.034,0,4.034,0&#xD;&#xA;&#x9;l14.752,8.404V0.72h8.307v8.404L44.564,0.72h6.086v3.472L40.052,10.24H50.65v9.527H40.052l10.598,6.048v3.473h-6.086l-14.751-8.406&#xD;&#xA;&#x9;v8.406h-8.307v-8.406L6.754,29.289H0.72v-3.473l10.546-6.048H0.72V10.24z"/>
  <path fill="#FFFFFF" d="M27.169,40.137l4.418-1.916l-2.597,4.476l4.019,2.734l-4.673,0.473l0.647,5.318l-3.264-3.898l-3.244,3.898&#xD;&#xA;&#x9;l0.628-5.318l-4.653-0.473l3.999-2.734l-2.577-4.476l4.399,1.916l1.448-5.12L27.169,40.137z M75.706,6.168l-0.687,2.428&#xD;&#xA;&#x9;l-2.086-0.909l1.222,2.122l-1.896,1.296l2.206,0.225l-0.297,2.521l1.538-1.849l1.548,1.849l-0.308-2.521l2.216-0.225l-1.906-1.296&#xD;&#xA;&#x9;l1.231-2.122l-2.095,0.909L75.706,6.168z M75.706,44.264l-0.687,2.428l-2.086-0.909l1.222,2.122l-1.896,1.296l2.206,0.225&#xD;&#xA;&#x9;l-0.297,2.521l1.538-1.849l1.548,1.849l-0.308-2.521l2.216-0.225l-1.906-1.296l1.231-2.122l-2.095,0.909L75.706,44.264z&#xD;&#xA;&#x9; M86.816,17.825l-0.687,2.428l-2.086-0.909l1.222,2.122l-1.896,1.297l2.206,0.224l-0.297,2.521l1.538-1.848l1.548,1.848&#xD;&#xA;&#x9;l-0.308-2.521l2.216-0.224l-1.906-1.297l1.231-2.122l-2.095,0.909L86.816,17.825z M63.207,21.644l-0.688,2.428l-2.086-0.908&#xD;&#xA;&#x9;l1.223,2.122l-1.896,1.297l2.206,0.224l-0.297,2.521l1.538-1.848l1.547,1.848l-0.307-2.521l2.215-0.224l-1.905-1.297l1.231-2.122&#xD;&#xA;&#x9;l-2.095,0.908L63.207,21.644z M80.704,29.181l-0.48,1.723l-1.594,0.005l1.297,1.067l-0.493,1.721l1.279-1.073l1.283,1.065&#xD;&#xA;&#x9;l-0.494-1.733l1.285-1.053l-1.588,0.004L80.704,29.181z"/>
  <polygon fill="#E03A3E" points="46.725,0.72 30.06,10.247 34.049,10.247 50.65,0.72 "/>
  <polygon fill="#E03A3E" points="50.65,29.289 34.031,19.768 38.039,19.768 50.65,27.019 "/>
  <path fill="#E03A3E" d="M17.418,10.247L1.465,1.149C0.545,1.922,0.72,2.996,0.72,2.996l12.673,7.251H17.418z"/>
  <polygon fill="#E03A3E" points="17.383,19.768 0.72,29.289 4.708,29.289 21.373,19.768 "/>
  <polygon fill="#E03A3E" points="0.72,12.217 23.275,12.217 23.275,0.72 28.156,0.72 28.156,12.217 50.65,12.217 50.65,17.795 &#xD;&#xA;&#x9;28.156,17.795 28.156,29.289 23.275,29.289 23.275,17.795 0.72,17.795 "/>
</svg>